<svg xmlns="http://www.w3.org/2000/svg" width="1024" height="768"><g fill-rule="evenodd" clip-rule="evenodd"><path d="M492 103c109.174-9.349 178.333 52.033 212 122 13.687 28.444 21 54.957 21 90 0 96.271-58.591 162.674-122 193-40.096 19.176-87.387 25.218-133 16-80.786-16.326-141.826-71.5-164-150-11.725-41.507-10.458-90.516 6-135 24.777-66.973 89.852-128.28 180-136zm58 130c-15.489-16.897-50.932-11.234-63-1-10.327 8.758-15.647 28.317-14 46 3.757 40.33 46.332 51.603 54 76 .842 2.679 7.236 26.158-9 28-15.446 1.753-15.148-16.635-15-29-5.855-2.261-25.531-.133-33-1 .417 40.771 15.494 60.731 52 58 29.451-2.203 42.414-23.338 42-50-.783-50.386-61.808-61.881-59-97 .403-5.04 3.906-15.638 15-14 11.465 1.692 10.22 20.103 12 30h29c-1.236-21.972-1.639-35.788-11-46zm-186-9v184h34c2.99-29.01-.992-64.992 2-94 9.863 31.804 20.939 62.394 32 93h26c.016-56.387-.003-126.616 0-183h-31c-.666 28.334 1.333 59.333-1 86-9.248-29.752-21.901-56.099-31-86h-31zm213 0v183h36c.666-25.001-1.332-52.666 1-76 5.64-.614 23.781 1.035 28-1v-31c-8.074-.475-24.623.645-29-1 .639-15.027-1.296-32.629 1-46h39v-28h-76zm64 185c15.636-1.226 15.627-32.002-6-25-15.456 5.004-8.193 26.112 6 25z"/><path d="M637 390c2.651.016 5.889-.555 6 2 .367 3.034-3.258 2.076-5 3-.839-1.161-1.319-2.681-1-5z"/><path d="M646 403c-14.018 12.139-22.479-14.426-10-18 11.853-3.395 18.026 11.05 10 18zm-3-7c7.822-2.977-.295-11.094-8-8 .945 4.046-3.942 11.855 2 15 .575-1.758-1.209-5.875 1-6 3.743.924 2.516 6.818 8 6 .003-3.336-3.253-3.414-3-7z"/></g></svg>